<mxfile host="Electron" agent="Mozilla/5.0 (Windows NT 10.0; Win64; x64) AppleWebKit/537.36 (KHTML, like Gecko) draw.io/27.0.9 Chrome/134.0.6998.205 Electron/35.4.0 Safari/537.36" version="27.0.9">
  <diagram name="Страница — 1" id="bj4hU3YoqGNhM61qSWuD">
    <mxGraphModel dx="1426" dy="849" grid="1" gridSize="10" guides="1" tooltips="1" connect="1" arrows="1" fold="1" page="1" pageScale="1" pageWidth="827" pageHeight="1169" math="0" shadow="0">
      <root>
        <mxCell id="0" />
        <mxCell id="1" parent="0" />
        <mxCell id="QfrXJephCyHxbfm8GQ1p-26" value="Компания" style="swimlane;html=1;childLayout=stackLayout;resizeParent=1;resizeParentMax=0;horizontal=0;startSize=20;horizontalStack=0;whiteSpace=wrap;" parent="1" vertex="1">
          <mxGeometry x="80" y="180" width="1480" height="720" as="geometry" />
        </mxCell>
        <mxCell id="QfrXJephCyHxbfm8GQ1p-28" value="Логист" style="swimlane;html=1;startSize=20;horizontal=0;" parent="QfrXJephCyHxbfm8GQ1p-26" vertex="1">
          <mxGeometry x="20" width="1460" height="130" as="geometry" />
        </mxCell>
        <mxCell id="QfrXJephCyHxbfm8GQ1p-173" value="Страховка оформлена" style="points=[[0.145,0.145,0],[0.5,0,0],[0.855,0.145,0],[1,0.5,0],[0.855,0.855,0],[0.5,1,0],[0.145,0.855,0],[0,0.5,0]];shape=mxgraph.bpmn.event;html=1;verticalLabelPosition=bottom;labelBackgroundColor=#ffffff;verticalAlign=top;align=center;perimeter=ellipsePerimeter;outlineConnect=0;aspect=fixed;outline=throwing;symbol=general;" parent="QfrXJephCyHxbfm8GQ1p-28" vertex="1">
          <mxGeometry x="1120" y="40" width="50" height="50" as="geometry" />
        </mxCell>
        <mxCell id="QfrXJephCyHxbfm8GQ1p-27" value="Офис-менеджер" style="swimlane;html=1;startSize=20;horizontal=0;" parent="QfrXJephCyHxbfm8GQ1p-26" vertex="1">
          <mxGeometry x="20" y="130" width="1460" height="390" as="geometry">
            <mxRectangle x="20" width="460" height="30" as="alternateBounds" />
          </mxGeometry>
        </mxCell>
        <mxCell id="QfrXJephCyHxbfm8GQ1p-31" value="Заказ получен" style="points=[[0.145,0.145,0],[0.5,0,0],[0.855,0.145,0],[1,0.5,0],[0.855,0.855,0],[0.5,1,0],[0.145,0.855,0],[0,0.5,0]];shape=mxgraph.bpmn.event;html=1;verticalLabelPosition=bottom;labelBackgroundColor=#ffffff;verticalAlign=top;align=center;perimeter=ellipsePerimeter;outlineConnect=0;aspect=fixed;outline=standard;symbol=general;" parent="QfrXJephCyHxbfm8GQ1p-27" vertex="1">
          <mxGeometry x="30" y="135" width="50" height="50" as="geometry" />
        </mxCell>
        <mxCell id="QfrXJephCyHxbfm8GQ1p-32" value="" style="edgeStyle=elbowEdgeStyle;fontSize=12;html=1;endArrow=blockThin;endFill=1;rounded=0;exitX=1;exitY=0.5;exitDx=0;exitDy=0;exitPerimeter=0;entryX=0;entryY=0.5;entryDx=0;entryDy=0;entryPerimeter=0;" parent="QfrXJephCyHxbfm8GQ1p-27" source="QfrXJephCyHxbfm8GQ1p-106" target="QfrXJephCyHxbfm8GQ1p-33" edge="1">
          <mxGeometry width="160" relative="1" as="geometry">
            <mxPoint x="130" y="240" as="sourcePoint" />
            <mxPoint x="160" y="245" as="targetPoint" />
          </mxGeometry>
        </mxCell>
        <mxCell id="QfrXJephCyHxbfm8GQ1p-50" value="Пока не будут озвучены все предложения" style="html=1;shape=mxgraph.flowchart.annotation_2;align=left;labelPosition=right;" parent="QfrXJephCyHxbfm8GQ1p-27" vertex="1">
          <mxGeometry x="527" y="330" width="30" height="40" as="geometry" />
        </mxCell>
        <mxCell id="QfrXJephCyHxbfm8GQ1p-34" value="Размер посылки" style="points=[[0.25,0.25,0],[0.5,0,0],[0.75,0.25,0],[1,0.5,0],[0.75,0.75,0],[0.5,1,0],[0.25,0.75,0],[0,0.5,0]];shape=mxgraph.bpmn.gateway2;html=1;verticalLabelPosition=bottom;labelBackgroundColor=#ffffff;verticalAlign=top;align=center;perimeter=rhombusPerimeter;outlineConnect=0;outline=none;symbol=none;gwType=exclusive;" parent="QfrXJephCyHxbfm8GQ1p-27" vertex="1">
          <mxGeometry x="380" y="135" width="50" height="50" as="geometry" />
        </mxCell>
        <mxCell id="QfrXJephCyHxbfm8GQ1p-38" value="" style="edgeStyle=elbowEdgeStyle;fontSize=12;html=1;endArrow=blockThin;endFill=1;rounded=0;exitX=1;exitY=0.5;exitDx=0;exitDy=0;exitPerimeter=0;entryX=0;entryY=0.5;entryDx=0;entryDy=0;entryPerimeter=0;" parent="QfrXJephCyHxbfm8GQ1p-27" source="QfrXJephCyHxbfm8GQ1p-106" target="QfrXJephCyHxbfm8GQ1p-34" edge="1">
          <mxGeometry width="160" relative="1" as="geometry">
            <mxPoint x="350" y="244.66" as="sourcePoint" />
            <mxPoint x="380" y="244.66" as="targetPoint" />
          </mxGeometry>
        </mxCell>
        <mxCell id="QfrXJephCyHxbfm8GQ1p-45" value="Запросить цену у трех ТК" style="points=[[0.25,0,0],[0.5,0,0],[0.75,0,0],[1,0.25,0],[1,0.5,0],[1,0.75,0],[0.75,1,0],[0.5,1,0],[0.25,1,0],[0,0.75,0],[0,0.5,0],[0,0.25,0]];shape=mxgraph.bpmn.task2;whiteSpace=wrap;rectStyle=rounded;size=10;html=1;container=1;expand=0;collapsible=0;taskMarker=abstract;isLoopStandard=1;" parent="QfrXJephCyHxbfm8GQ1p-27" vertex="1">
          <mxGeometry x="437" y="230" width="120" height="80" as="geometry" />
        </mxCell>
        <mxCell id="QfrXJephCyHxbfm8GQ1p-52" value="Выбрать лучшее предложение" style="points=[[0.25,0,0],[0.5,0,0],[0.75,0,0],[1,0.25,0],[1,0.5,0],[1,0.75,0],[0.75,1,0],[0.5,1,0],[0.25,1,0],[0,0.75,0],[0,0.5,0],[0,0.25,0]];shape=mxgraph.bpmn.task2;whiteSpace=wrap;rectStyle=rounded;size=10;html=1;container=1;expand=0;collapsible=0;taskMarker=abstract;" parent="QfrXJephCyHxbfm8GQ1p-27" vertex="1">
          <mxGeometry x="725" y="230" width="120" height="80" as="geometry" />
        </mxCell>
        <mxCell id="QfrXJephCyHxbfm8GQ1p-56" value="Распечатать этикетку" style="points=[[0.25,0,0],[0.5,0,0],[0.75,0,0],[1,0.25,0],[1,0.5,0],[1,0.75,0],[0.75,1,0],[0.5,1,0],[0.25,1,0],[0,0.75,0],[0,0.5,0],[0,0.25,0]];shape=mxgraph.bpmn.task2;whiteSpace=wrap;rectStyle=rounded;size=10;html=1;container=1;expand=0;collapsible=0;taskMarker=abstract;" parent="QfrXJephCyHxbfm8GQ1p-27" vertex="1">
          <mxGeometry x="437" y="20" width="120" height="80" as="geometry" />
        </mxCell>
        <mxCell id="QfrXJephCyHxbfm8GQ1p-60" value="Проверить необходимость страховки" style="points=[[0.25,0,0],[0.5,0,0],[0.75,0,0],[1,0.25,0],[1,0.5,0],[1,0.75,0],[0.75,1,0],[0.5,1,0],[0.25,1,0],[0,0.75,0],[0,0.5,0],[0,0.25,0]];shape=mxgraph.bpmn.task2;whiteSpace=wrap;rectStyle=rounded;size=10;html=1;container=1;expand=0;collapsible=0;taskMarker=abstract;" parent="QfrXJephCyHxbfm8GQ1p-27" vertex="1">
          <mxGeometry x="607" y="20" width="120" height="80" as="geometry" />
        </mxCell>
        <mxCell id="QfrXJephCyHxbfm8GQ1p-62" style="edgeStyle=orthogonalEdgeStyle;rounded=0;orthogonalLoop=1;jettySize=auto;html=1;exitX=1;exitY=0.5;exitDx=0;exitDy=0;exitPerimeter=0;entryX=0;entryY=0.5;entryDx=0;entryDy=0;entryPerimeter=0;" parent="QfrXJephCyHxbfm8GQ1p-27" source="QfrXJephCyHxbfm8GQ1p-56" target="QfrXJephCyHxbfm8GQ1p-60" edge="1">
          <mxGeometry relative="1" as="geometry" />
        </mxCell>
        <mxCell id="QfrXJephCyHxbfm8GQ1p-49" value="" style="fontSize=12;html=1;endFill=0;startFill=0;endSize=6;startSize=6;dashed=1;dashPattern=1 4;endArrow=none;startArrow=none;rounded=0;entryX=0.75;entryY=1;entryDx=0;entryDy=0;entryPerimeter=0;exitX=0.5;exitY=0;exitDx=0;exitDy=0;exitPerimeter=0;" parent="QfrXJephCyHxbfm8GQ1p-27" source="QfrXJephCyHxbfm8GQ1p-50" target="QfrXJephCyHxbfm8GQ1p-45" edge="1">
          <mxGeometry width="160" relative="1" as="geometry">
            <mxPoint x="605" y="270" as="sourcePoint" />
            <mxPoint x="573" y="230" as="targetPoint" />
          </mxGeometry>
        </mxCell>
        <mxCell id="QfrXJephCyHxbfm8GQ1p-64" style="edgeStyle=orthogonalEdgeStyle;rounded=0;orthogonalLoop=1;jettySize=auto;html=1;exitX=1;exitY=0.5;exitDx=0;exitDy=0;exitPerimeter=0;entryX=0;entryY=0.5;entryDx=0;entryDy=0;entryPerimeter=0;" parent="QfrXJephCyHxbfm8GQ1p-27" source="QfrXJephCyHxbfm8GQ1p-60" target="p5-HiY3rVVCVpf2J3rAx-1" edge="1">
          <mxGeometry relative="1" as="geometry">
            <mxPoint x="750" y="60" as="targetPoint" />
          </mxGeometry>
        </mxCell>
        <mxCell id="QfrXJephCyHxbfm8GQ1p-93" style="edgeStyle=orthogonalEdgeStyle;rounded=0;orthogonalLoop=1;jettySize=auto;html=1;exitX=1;exitY=0.5;exitDx=0;exitDy=0;exitPerimeter=0;entryX=0;entryY=0.5;entryDx=0;entryDy=0;entryPerimeter=0;" parent="QfrXJephCyHxbfm8GQ1p-27" source="QfrXJephCyHxbfm8GQ1p-45" target="QfrXJephCyHxbfm8GQ1p-52" edge="1">
          <mxGeometry relative="1" as="geometry" />
        </mxCell>
        <mxCell id="QfrXJephCyHxbfm8GQ1p-94" style="edgeStyle=orthogonalEdgeStyle;rounded=0;orthogonalLoop=1;jettySize=auto;html=1;entryX=0;entryY=0.5;entryDx=0;entryDy=0;entryPerimeter=0;exitX=0.5;exitY=1;exitDx=0;exitDy=0;exitPerimeter=0;" parent="QfrXJephCyHxbfm8GQ1p-27" source="QfrXJephCyHxbfm8GQ1p-34" target="QfrXJephCyHxbfm8GQ1p-45" edge="1">
          <mxGeometry relative="1" as="geometry">
            <mxPoint x="540" y="160" as="sourcePoint" />
          </mxGeometry>
        </mxCell>
        <mxCell id="QfrXJephCyHxbfm8GQ1p-97" value="Специальная доставка" style="edgeLabel;html=1;align=center;verticalAlign=middle;resizable=0;points=[];" parent="QfrXJephCyHxbfm8GQ1p-94" vertex="1" connectable="0">
          <mxGeometry x="-0.2364" y="3" relative="1" as="geometry">
            <mxPoint x="-68" y="30" as="offset" />
          </mxGeometry>
        </mxCell>
        <mxCell id="QfrXJephCyHxbfm8GQ1p-95" style="edgeStyle=orthogonalEdgeStyle;rounded=0;orthogonalLoop=1;jettySize=auto;html=1;exitX=0.5;exitY=0;exitDx=0;exitDy=0;exitPerimeter=0;entryX=0;entryY=0.5;entryDx=0;entryDy=0;entryPerimeter=0;" parent="QfrXJephCyHxbfm8GQ1p-27" source="QfrXJephCyHxbfm8GQ1p-34" target="QfrXJephCyHxbfm8GQ1p-56" edge="1">
          <mxGeometry relative="1" as="geometry" />
        </mxCell>
        <mxCell id="QfrXJephCyHxbfm8GQ1p-98" value="Обычная доставка" style="edgeLabel;html=1;align=center;verticalAlign=middle;resizable=0;points=[];" parent="QfrXJephCyHxbfm8GQ1p-95" vertex="1" connectable="0">
          <mxGeometry x="-0.2549" y="1" relative="1" as="geometry">
            <mxPoint x="-54" y="8" as="offset" />
          </mxGeometry>
        </mxCell>
        <mxCell id="QfrXJephCyHxbfm8GQ1p-105" value="" style="edgeStyle=elbowEdgeStyle;fontSize=12;html=1;endArrow=blockThin;endFill=1;rounded=0;exitX=1;exitY=0.5;exitDx=0;exitDy=0;exitPerimeter=0;entryX=0;entryY=0.5;entryDx=0;entryDy=0;entryPerimeter=0;" parent="QfrXJephCyHxbfm8GQ1p-27" source="QfrXJephCyHxbfm8GQ1p-33" target="QfrXJephCyHxbfm8GQ1p-106" edge="1">
          <mxGeometry width="160" relative="1" as="geometry">
            <mxPoint x="180" y="470" as="sourcePoint" />
            <mxPoint x="360" y="470" as="targetPoint" />
          </mxGeometry>
        </mxCell>
        <mxCell id="QfrXJephCyHxbfm8GQ1p-101" value="Оформить страховку" style="points=[[0.25,0,0],[0.5,0,0],[0.75,0,0],[1,0.25,0],[1,0.5,0],[1,0.75,0],[0.75,1,0],[0.5,1,0],[0.25,1,0],[0,0.75,0],[0,0.5,0],[0,0.25,0]];shape=mxgraph.bpmn.task2;whiteSpace=wrap;rectStyle=rounded;size=10;html=1;container=1;expand=0;collapsible=0;taskMarker=abstract;" parent="QfrXJephCyHxbfm8GQ1p-27" vertex="1">
          <mxGeometry x="960" y="-105" width="120" height="80" as="geometry" />
        </mxCell>
        <mxCell id="QfrXJephCyHxbfm8GQ1p-66" value="Выбрать страховку" style="points=[[0.25,0,0],[0.5,0,0],[0.75,0,0],[1,0.25,0],[1,0.5,0],[1,0.75,0],[0.75,1,0],[0.5,1,0],[0.25,1,0],[0,0.75,0],[0,0.5,0],[0,0.25,0]];shape=mxgraph.bpmn.task2;whiteSpace=wrap;rectStyle=rounded;size=10;html=1;container=1;expand=0;collapsible=0;taskMarker=abstract;" parent="QfrXJephCyHxbfm8GQ1p-27" vertex="1">
          <mxGeometry x="810" y="-105" width="120" height="80" as="geometry" />
        </mxCell>
        <mxCell id="QfrXJephCyHxbfm8GQ1p-124" style="edgeStyle=orthogonalEdgeStyle;rounded=0;orthogonalLoop=1;jettySize=auto;html=1;exitX=1;exitY=0.5;exitDx=0;exitDy=0;exitPerimeter=0;" parent="QfrXJephCyHxbfm8GQ1p-27" target="QfrXJephCyHxbfm8GQ1p-123" edge="1">
          <mxGeometry relative="1" as="geometry">
            <mxPoint x="1170" y="60" as="sourcePoint" />
          </mxGeometry>
        </mxCell>
        <mxCell id="QfrXJephCyHxbfm8GQ1p-121" style="edgeStyle=orthogonalEdgeStyle;rounded=0;orthogonalLoop=1;jettySize=auto;html=1;entryX=0;entryY=0.5;entryDx=0;entryDy=0;entryPerimeter=0;exitX=0.5;exitY=0;exitDx=0;exitDy=0;exitPerimeter=0;" parent="QfrXJephCyHxbfm8GQ1p-27" source="p5-HiY3rVVCVpf2J3rAx-1" target="QfrXJephCyHxbfm8GQ1p-66" edge="1">
          <mxGeometry relative="1" as="geometry">
            <mxPoint x="860" y="20" as="sourcePoint" />
          </mxGeometry>
        </mxCell>
        <mxCell id="QfrXJephCyHxbfm8GQ1p-122" value="Требуется страховка" style="edgeLabel;html=1;align=center;verticalAlign=middle;resizable=0;points=[];" parent="QfrXJephCyHxbfm8GQ1p-121" vertex="1" connectable="0">
          <mxGeometry x="0.0815" y="-2" relative="1" as="geometry">
            <mxPoint x="-57" as="offset" />
          </mxGeometry>
        </mxCell>
        <mxCell id="QfrXJephCyHxbfm8GQ1p-123" value="" style="points=[[0.25,0.25,0],[0.5,0,0],[0.75,0.25,0],[1,0.5,0],[0.75,0.75,0],[0.5,1,0],[0.25,0.75,0],[0,0.5,0]];shape=mxgraph.bpmn.gateway2;html=1;verticalLabelPosition=bottom;labelBackgroundColor=#ffffff;verticalAlign=top;align=center;perimeter=rhombusPerimeter;outlineConnect=0;outline=none;symbol=none;gwType=exclusive;" parent="QfrXJephCyHxbfm8GQ1p-27" vertex="1">
          <mxGeometry x="1200" y="135" width="50" height="50" as="geometry" />
        </mxCell>
        <mxCell id="QfrXJephCyHxbfm8GQ1p-102" style="edgeStyle=orthogonalEdgeStyle;rounded=0;orthogonalLoop=1;jettySize=auto;html=1;exitX=1;exitY=0.5;exitDx=0;exitDy=0;exitPerimeter=0;entryX=0;entryY=0.5;entryDx=0;entryDy=0;entryPerimeter=0;" parent="QfrXJephCyHxbfm8GQ1p-27" source="QfrXJephCyHxbfm8GQ1p-66" target="QfrXJephCyHxbfm8GQ1p-101" edge="1">
          <mxGeometry relative="1" as="geometry" />
        </mxCell>
        <mxCell id="QfrXJephCyHxbfm8GQ1p-176" value="Выбрано лучшее предложение" style="points=[[0.145,0.145,0],[0.5,0,0],[0.855,0.145,0],[1,0.5,0],[0.855,0.855,0],[0.5,1,0],[0.145,0.855,0],[0,0.5,0]];shape=mxgraph.bpmn.event;html=1;verticalLabelPosition=bottom;labelBackgroundColor=#ffffff;verticalAlign=top;align=center;perimeter=ellipsePerimeter;outlineConnect=0;aspect=fixed;outline=throwing;symbol=general;" parent="QfrXJephCyHxbfm8GQ1p-27" vertex="1">
          <mxGeometry x="970" y="245" width="50" height="50" as="geometry" />
        </mxCell>
        <mxCell id="QfrXJephCyHxbfm8GQ1p-177" value="" style="edgeStyle=orthogonalEdgeStyle;rounded=0;orthogonalLoop=1;jettySize=auto;html=1;exitX=1;exitY=0.5;exitDx=0;exitDy=0;exitPerimeter=0;entryX=0;entryY=0.5;entryDx=0;entryDy=0;entryPerimeter=0;" parent="QfrXJephCyHxbfm8GQ1p-27" source="QfrXJephCyHxbfm8GQ1p-52" target="QfrXJephCyHxbfm8GQ1p-176" edge="1">
          <mxGeometry relative="1" as="geometry">
            <mxPoint x="1220" y="500" as="targetPoint" />
            <mxPoint x="820" y="580" as="sourcePoint" />
          </mxGeometry>
        </mxCell>
        <mxCell id="QfrXJephCyHxbfm8GQ1p-178" value="Сообщить продавцу об отправке" style="points=[[0.25,0,0],[0.5,0,0],[0.75,0,0],[1,0.25,0],[1,0.5,0],[1,0.75,0],[0.75,1,0],[0.5,1,0],[0.25,1,0],[0,0.75,0],[0,0.5,0],[0,0.25,0]];shape=mxgraph.bpmn.task2;whiteSpace=wrap;rectStyle=rounded;size=10;html=1;container=1;expand=0;collapsible=0;taskMarker=abstract;" parent="QfrXJephCyHxbfm8GQ1p-27" vertex="1">
          <mxGeometry x="1250" y="230" width="120" height="80" as="geometry" />
        </mxCell>
        <mxCell id="QfrXJephCyHxbfm8GQ1p-179" value="" style="edgeStyle=orthogonalEdgeStyle;rounded=0;orthogonalLoop=1;jettySize=auto;html=1;exitX=1;exitY=0.5;exitDx=0;exitDy=0;exitPerimeter=0;entryX=0;entryY=0.5;entryDx=0;entryDy=0;entryPerimeter=0;" parent="QfrXJephCyHxbfm8GQ1p-27" source="QfrXJephCyHxbfm8GQ1p-176" target="QfrXJephCyHxbfm8GQ1p-123" edge="1">
          <mxGeometry relative="1" as="geometry">
            <mxPoint x="1220" y="500" as="targetPoint" />
            <mxPoint x="970" y="580" as="sourcePoint" />
          </mxGeometry>
        </mxCell>
        <mxCell id="QfrXJephCyHxbfm8GQ1p-186" value="" style="edgeStyle=elbowEdgeStyle;fontSize=12;html=1;endArrow=blockThin;endFill=1;rounded=0;exitX=1;exitY=0.5;exitDx=0;exitDy=0;exitPerimeter=0;entryX=0;entryY=0.5;entryDx=0;entryDy=0;entryPerimeter=0;" parent="QfrXJephCyHxbfm8GQ1p-27" source="QfrXJephCyHxbfm8GQ1p-31" target="QfrXJephCyHxbfm8GQ1p-33" edge="1">
          <mxGeometry width="160" relative="1" as="geometry">
            <mxPoint x="180" y="470" as="sourcePoint" />
            <mxPoint x="270" y="470" as="targetPoint" />
          </mxGeometry>
        </mxCell>
        <mxCell id="QfrXJephCyHxbfm8GQ1p-33" value="Определить физический размер заказа" style="points=[[0.25,0,0],[0.5,0,0],[0.75,0,0],[1,0.25,0],[1,0.5,0],[1,0.75,0],[0.75,1,0],[0.5,1,0],[0.25,1,0],[0,0.75,0],[0,0.5,0],[0,0.25,0]];shape=mxgraph.bpmn.task2;whiteSpace=wrap;rectStyle=rounded;size=10;html=1;container=1;expand=0;collapsible=0;taskMarker=abstract;" parent="QfrXJephCyHxbfm8GQ1p-27" vertex="1">
          <mxGeometry x="100" y="120" width="120" height="80" as="geometry" />
        </mxCell>
        <mxCell id="QfrXJephCyHxbfm8GQ1p-187" value="" style="edgeStyle=elbowEdgeStyle;fontSize=12;html=1;endArrow=blockThin;endFill=1;rounded=0;exitX=1;exitY=0.5;exitDx=0;exitDy=0;exitPerimeter=0;entryX=0;entryY=0.5;entryDx=0;entryDy=0;entryPerimeter=0;" parent="QfrXJephCyHxbfm8GQ1p-27" source="QfrXJephCyHxbfm8GQ1p-33" target="QfrXJephCyHxbfm8GQ1p-106" edge="1">
          <mxGeometry width="160" relative="1" as="geometry">
            <mxPoint x="260" y="470" as="sourcePoint" />
            <mxPoint x="480" y="470" as="targetPoint" />
          </mxGeometry>
        </mxCell>
        <mxCell id="QfrXJephCyHxbfm8GQ1p-106" value="" style="points=[[0.25,0.25,0],[0.5,0,0],[0.75,0.25,0],[1,0.5,0],[0.75,0.75,0],[0.5,1,0],[0.25,0.75,0],[0,0.5,0]];shape=mxgraph.bpmn.gateway2;html=1;verticalLabelPosition=bottom;labelBackgroundColor=#ffffff;verticalAlign=top;align=center;perimeter=rhombusPerimeter;outlineConnect=0;outline=none;symbol=none;gwType=parallel;" parent="QfrXJephCyHxbfm8GQ1p-27" vertex="1">
          <mxGeometry x="255" y="135" width="50" height="50" as="geometry" />
        </mxCell>
        <mxCell id="QfrXJephCyHxbfm8GQ1p-189" style="edgeStyle=orthogonalEdgeStyle;rounded=0;orthogonalLoop=1;jettySize=auto;html=1;exitX=1;exitY=0.5;exitDx=0;exitDy=0;exitPerimeter=0;entryX=0.5;entryY=0;entryDx=0;entryDy=0;entryPerimeter=0;" parent="QfrXJephCyHxbfm8GQ1p-27" source="QfrXJephCyHxbfm8GQ1p-123" target="QfrXJephCyHxbfm8GQ1p-178" edge="1">
          <mxGeometry relative="1" as="geometry" />
        </mxCell>
        <mxCell id="p5-HiY3rVVCVpf2J3rAx-1" value="" style="points=[[0.25,0.25,0],[0.5,0,0],[0.75,0.25,0],[1,0.5,0],[0.75,0.75,0],[0.5,1,0],[0.25,0.75,0],[0,0.5,0]];shape=mxgraph.bpmn.gateway2;html=1;verticalLabelPosition=bottom;labelBackgroundColor=#ffffff;verticalAlign=top;align=center;perimeter=rhombusPerimeter;outlineConnect=0;outline=end;symbol=general;" parent="QfrXJephCyHxbfm8GQ1p-27" vertex="1">
          <mxGeometry x="760" y="35" width="50" height="50" as="geometry" />
        </mxCell>
        <mxCell id="p5-HiY3rVVCVpf2J3rAx-3" value="" style="edgeStyle=orthogonalEdgeStyle;rounded=0;orthogonalLoop=1;jettySize=auto;html=1;exitX=1;exitY=0.5;exitDx=0;exitDy=0;exitPerimeter=0;entryX=0;entryY=0.5;entryDx=0;entryDy=0;entryPerimeter=0;" parent="QfrXJephCyHxbfm8GQ1p-27" source="p5-HiY3rVVCVpf2J3rAx-1" target="p5-HiY3rVVCVpf2J3rAx-5" edge="1">
          <mxGeometry relative="1" as="geometry">
            <mxPoint x="910" y="370" as="sourcePoint" />
            <mxPoint x="940" y="60" as="targetPoint" />
          </mxGeometry>
        </mxCell>
        <mxCell id="p5-HiY3rVVCVpf2J3rAx-4" value="Не требуется страховка" style="edgeLabel;html=1;align=center;verticalAlign=middle;resizable=0;points=[];" parent="p5-HiY3rVVCVpf2J3rAx-3" vertex="1" connectable="0">
          <mxGeometry x="-0.35" y="-4" relative="1" as="geometry">
            <mxPoint x="49" y="6" as="offset" />
          </mxGeometry>
        </mxCell>
        <mxCell id="p5-HiY3rVVCVpf2J3rAx-5" value="" style="points=[[0.25,0.25,0],[0.5,0,0],[0.75,0.25,0],[1,0.5,0],[0.75,0.75,0],[0.5,1,0],[0.25,0.75,0],[0,0.5,0]];shape=mxgraph.bpmn.gateway2;html=1;verticalLabelPosition=bottom;labelBackgroundColor=#ffffff;verticalAlign=top;align=center;perimeter=rhombusPerimeter;outlineConnect=0;outline=end;symbol=general;" parent="QfrXJephCyHxbfm8GQ1p-27" vertex="1">
          <mxGeometry x="1120" y="35" width="50" height="50" as="geometry" />
        </mxCell>
        <mxCell id="QfrXJephCyHxbfm8GQ1p-29" value="Сотрудник склада" style="swimlane;html=1;startSize=20;horizontal=0;" parent="QfrXJephCyHxbfm8GQ1p-26" vertex="1">
          <mxGeometry x="20" y="520" width="1460" height="200" as="geometry" />
        </mxCell>
        <mxCell id="QfrXJephCyHxbfm8GQ1p-108" value="Собрать товар" style="points=[[0.25,0,0],[0.5,0,0],[0.75,0,0],[1,0.25,0],[1,0.5,0],[1,0.75,0],[0.75,1,0],[0.5,1,0],[0.25,1,0],[0,0.75,0],[0,0.5,0],[0,0.25,0]];shape=mxgraph.bpmn.task2;whiteSpace=wrap;rectStyle=rounded;size=10;html=1;container=1;expand=0;collapsible=0;taskMarker=abstract;" parent="QfrXJephCyHxbfm8GQ1p-29" vertex="1">
          <mxGeometry x="420" y="50" width="120" height="80" as="geometry" />
        </mxCell>
        <mxCell id="QfrXJephCyHxbfm8GQ1p-109" value="Упаковать товар" style="points=[[0.25,0,0],[0.5,0,0],[0.75,0,0],[1,0.25,0],[1,0.5,0],[1,0.75,0],[0.75,1,0],[0.5,1,0],[0.25,1,0],[0,0.75,0],[0,0.5,0],[0,0.25,0]];shape=mxgraph.bpmn.task2;whiteSpace=wrap;rectStyle=rounded;size=10;html=1;container=1;expand=0;collapsible=0;taskMarker=abstract;" parent="QfrXJephCyHxbfm8GQ1p-29" vertex="1">
          <mxGeometry x="830" y="50" width="120" height="80" as="geometry" />
        </mxCell>
        <mxCell id="QfrXJephCyHxbfm8GQ1p-110" style="edgeStyle=orthogonalEdgeStyle;rounded=0;orthogonalLoop=1;jettySize=auto;html=1;exitX=1;exitY=0.5;exitDx=0;exitDy=0;exitPerimeter=0;entryX=0;entryY=0.5;entryDx=0;entryDy=0;entryPerimeter=0;" parent="QfrXJephCyHxbfm8GQ1p-29" source="QfrXJephCyHxbfm8GQ1p-108" target="QfrXJephCyHxbfm8GQ1p-109" edge="1">
          <mxGeometry relative="1" as="geometry" />
        </mxCell>
        <mxCell id="QfrXJephCyHxbfm8GQ1p-111" value="Подготовить товар для отправки" style="points=[[0.25,0,0],[0.5,0,0],[0.75,0,0],[1,0.25,0],[1,0.5,0],[1,0.75,0],[0.75,1,0],[0.5,1,0],[0.25,1,0],[0,0.75,0],[0,0.5,0],[0,0.25,0]];shape=mxgraph.bpmn.task2;whiteSpace=wrap;rectStyle=rounded;size=10;html=1;container=1;expand=0;collapsible=0;taskMarker=abstract;" parent="QfrXJephCyHxbfm8GQ1p-29" vertex="1">
          <mxGeometry x="1190" y="50" width="120" height="80" as="geometry" />
        </mxCell>
        <mxCell id="QfrXJephCyHxbfm8GQ1p-166" value="" style="points=[[0.25,0.25,0],[0.5,0,0],[0.75,0.25,0],[1,0.5,0],[0.75,0.75,0],[0.5,1,0],[0.25,0.75,0],[0,0.5,0]];shape=mxgraph.bpmn.gateway2;html=1;verticalLabelPosition=bottom;labelBackgroundColor=#ffffff;verticalAlign=top;align=center;perimeter=rhombusPerimeter;outlineConnect=0;outline=none;symbol=none;gwType=parallel;" parent="QfrXJephCyHxbfm8GQ1p-29" vertex="1">
          <mxGeometry x="1091" y="65" width="50" height="50" as="geometry" />
        </mxCell>
        <mxCell id="QfrXJephCyHxbfm8GQ1p-168" style="edgeStyle=orthogonalEdgeStyle;rounded=0;orthogonalLoop=1;jettySize=auto;html=1;exitX=1;exitY=0.5;exitDx=0;exitDy=0;exitPerimeter=0;entryX=0;entryY=0.5;entryDx=0;entryDy=0;entryPerimeter=0;" parent="QfrXJephCyHxbfm8GQ1p-29" source="QfrXJephCyHxbfm8GQ1p-109" target="QfrXJephCyHxbfm8GQ1p-166" edge="1">
          <mxGeometry relative="1" as="geometry" />
        </mxCell>
        <mxCell id="QfrXJephCyHxbfm8GQ1p-170" style="edgeStyle=orthogonalEdgeStyle;rounded=0;orthogonalLoop=1;jettySize=auto;html=1;exitX=1;exitY=0.5;exitDx=0;exitDy=0;exitPerimeter=0;entryX=0;entryY=0.5;entryDx=0;entryDy=0;entryPerimeter=0;" parent="QfrXJephCyHxbfm8GQ1p-29" source="QfrXJephCyHxbfm8GQ1p-166" target="QfrXJephCyHxbfm8GQ1p-111" edge="1">
          <mxGeometry relative="1" as="geometry" />
        </mxCell>
        <mxCell id="QfrXJephCyHxbfm8GQ1p-171" value="Товар готов к отгрузке" style="points=[[0.145,0.145,0],[0.5,0,0],[0.855,0.145,0],[1,0.5,0],[0.855,0.855,0],[0.5,1,0],[0.145,0.855,0],[0,0.5,0]];shape=mxgraph.bpmn.event;html=1;verticalLabelPosition=bottom;labelBackgroundColor=#ffffff;verticalAlign=top;align=center;perimeter=ellipsePerimeter;outlineConnect=0;aspect=fixed;outline=end;symbol=terminate2;" parent="QfrXJephCyHxbfm8GQ1p-29" vertex="1">
          <mxGeometry x="1370" y="65" width="50" height="50" as="geometry" />
        </mxCell>
        <mxCell id="QfrXJephCyHxbfm8GQ1p-172" style="edgeStyle=orthogonalEdgeStyle;rounded=0;orthogonalLoop=1;jettySize=auto;html=1;exitX=1;exitY=0.5;exitDx=0;exitDy=0;exitPerimeter=0;entryX=0;entryY=0.5;entryDx=0;entryDy=0;entryPerimeter=0;" parent="QfrXJephCyHxbfm8GQ1p-29" source="QfrXJephCyHxbfm8GQ1p-111" target="QfrXJephCyHxbfm8GQ1p-171" edge="1">
          <mxGeometry relative="1" as="geometry" />
        </mxCell>
        <mxCell id="QfrXJephCyHxbfm8GQ1p-174" style="edgeStyle=orthogonalEdgeStyle;rounded=0;orthogonalLoop=1;jettySize=auto;html=1;exitX=1;exitY=0.5;exitDx=0;exitDy=0;exitPerimeter=0;entryX=0;entryY=0.5;entryDx=0;entryDy=0;entryPerimeter=0;" parent="QfrXJephCyHxbfm8GQ1p-26" source="QfrXJephCyHxbfm8GQ1p-101" target="QfrXJephCyHxbfm8GQ1p-173" edge="1">
          <mxGeometry relative="1" as="geometry" />
        </mxCell>
        <mxCell id="QfrXJephCyHxbfm8GQ1p-175" style="edgeStyle=orthogonalEdgeStyle;rounded=0;orthogonalLoop=1;jettySize=auto;html=1;exitX=0.5;exitY=1;exitDx=0;exitDy=0;exitPerimeter=0;entryX=0.5;entryY=0;entryDx=0;entryDy=0;entryPerimeter=0;" parent="QfrXJephCyHxbfm8GQ1p-26" source="QfrXJephCyHxbfm8GQ1p-173" target="p5-HiY3rVVCVpf2J3rAx-5" edge="1">
          <mxGeometry relative="1" as="geometry">
            <mxPoint x="1210" y="150" as="targetPoint" />
          </mxGeometry>
        </mxCell>
        <mxCell id="QfrXJephCyHxbfm8GQ1p-184" style="edgeStyle=orthogonalEdgeStyle;rounded=0;orthogonalLoop=1;jettySize=auto;html=1;exitX=0.5;exitY=1;exitDx=0;exitDy=0;exitPerimeter=0;entryX=0.5;entryY=0;entryDx=0;entryDy=0;entryPerimeter=0;" parent="QfrXJephCyHxbfm8GQ1p-26" source="QfrXJephCyHxbfm8GQ1p-178" target="QfrXJephCyHxbfm8GQ1p-166" edge="1">
          <mxGeometry relative="1" as="geometry">
            <mxPoint x="1274.9999999999995" y="424.9999999999998" as="sourcePoint" />
          </mxGeometry>
        </mxCell>
        <mxCell id="QfrXJephCyHxbfm8GQ1p-188" style="edgeStyle=orthogonalEdgeStyle;rounded=0;orthogonalLoop=1;jettySize=auto;html=1;exitX=0.5;exitY=1;exitDx=0;exitDy=0;exitPerimeter=0;entryX=0;entryY=0.5;entryDx=0;entryDy=0;entryPerimeter=0;" parent="QfrXJephCyHxbfm8GQ1p-26" source="QfrXJephCyHxbfm8GQ1p-106" target="QfrXJephCyHxbfm8GQ1p-108" edge="1">
          <mxGeometry relative="1" as="geometry" />
        </mxCell>
      </root>
    </mxGraphModel>
  </diagram>
</mxfile>
